<svg preserveAspectRatio="none" width="100%" height="100%" overflow="visible" style="display: block;" viewBox="0 0 10 10" fill="none" xmlns="http://www.w3.org/2000/svg">
<path id="Combined-Shape" fill-rule="evenodd" clip-rule="evenodd" d="M0 4.99981C1.06643e-08 4.69442 0.247704 4.44672 0.553559 4.44625L4.44652 4.44614L4.44664 0.553171C4.44664 0.271253 4.65774 0.0384585 4.93044 0.00431206L4.99966 6.61349e-07C5.30557 -0.000467606 5.55383 0.247791 5.55336 0.55356L5.55293 4.44653L9.4463 4.44664C9.72866 4.4462 9.96153 4.65733 9.99569 4.93065L10 5.0002C10 5.30561 9.75224 5.55337 9.44683 5.55337L5.55371 5.55332L5.55375 9.44659C5.55332 9.72878 5.34223 9.96155 5.06945 9.99569L5.00005 10C4.69434 9.99953 4.44664 9.75183 4.44664 9.44644L4.44614 5.55332L0.553559 5.55337C0.271642 5.55337 0.0385155 5.34193 0.0043181 5.06918L0 4.99981Z" fill="var(--fill-0, #F6FBFF)"/>
</svg>
