<svg preserveAspectRatio="none" width="100%" height="100%" overflow="visible" style="display: block;" viewBox="0 0 16.6035 16.634" fill="none" xmlns="http://www.w3.org/2000/svg">
<path id="Vector (Stroke)" d="M4.59187 0V0.00109863C5.15767 -0.00248152 5.70632 0.197842 6.13545 0.566895C6.51261 0.891394 6.77495 1.32642 6.88801 1.80725L6.92756 2.01599L6.92866 2.02368C7.01521 2.67977 7.17538 3.32402 7.40657 3.94409C7.56423 4.36353 7.59891 4.81982 7.50544 5.25806C7.41198 5.6963 7.1943 6.09849 6.87922 6.41711L6.87593 6.42041L6.39253 6.90271C7.24879 8.22657 8.37569 9.35315 9.69941 10.2096L10.1828 9.72729L10.1861 9.724C10.5047 9.40893 10.9069 9.19124 11.3452 9.09778C11.7824 9.00453 12.2372 9.03883 12.6558 9.19556C13.2766 9.42719 13.9227 9.58791 14.5795 9.67456L14.5872 9.67566C15.1564 9.75596 15.6768 10.0424 16.0484 10.481C16.4154 10.9141 16.6121 11.4661 16.6032 12.0333V14.28L16.5911 14.5239C16.5668 14.7666 16.5047 15.0049 16.4066 15.2292C16.2758 15.5281 16.0844 15.7965 15.8441 16.017C15.6036 16.2376 15.3194 16.4057 15.0102 16.5103C14.7012 16.6147 14.3738 16.6538 14.0489 16.6245L14.0335 16.6223C11.5969 16.3576 9.25592 15.5258 7.19892 14.1932C5.28245 12.9753 3.65749 11.3505 2.43965 9.43396V9.43286C1.10271 7.36672 0.270455 5.01479 0.0105697 2.5675L0.00947108 2.55432C-0.0197454 2.23039 0.0188154 1.90345 0.12263 1.59521C0.226503 1.28708 0.393392 1.00371 0.61262 0.76355C0.831864 0.523434 1.09854 0.331377 1.39595 0.199951C1.69348 0.0685295 2.01551 0.000355818 2.34077 0H4.59187ZM2.20784 1.70178C2.16341 1.71116 2.11995 1.72509 2.0782 1.74353C1.99486 1.78034 1.91989 1.83445 1.85847 1.90173C1.79717 1.96896 1.75018 2.04842 1.72114 2.13464C1.69263 2.21943 1.68186 2.3092 1.68928 2.39832C1.90792 4.44517 2.57532 6.41684 3.64155 8.17383L3.86018 8.52209L3.86457 8.52869C4.88191 10.1296 6.21762 11.5024 7.78779 12.5618L8.1042 12.7694L8.11079 12.7738C9.94507 13.9633 12.0328 14.7048 14.206 14.9425C14.2952 14.9498 14.3849 14.9404 14.4697 14.9117C14.5562 14.8825 14.6353 14.835 14.7026 14.7733C14.7699 14.7115 14.8242 14.6362 14.8608 14.5525C14.8973 14.469 14.916 14.3788 14.9157 14.2877V12.0125C14.9196 11.8517 14.8648 11.6946 14.7608 11.5719C14.6568 11.4492 14.5103 11.3692 14.351 11.3467V11.3456C13.5707 11.242 12.8044 11.0517 12.067 10.7765H12.0648C11.9474 10.7324 11.8194 10.7229 11.6967 10.749C11.5742 10.7753 11.4617 10.8356 11.3726 10.9237L10.4234 11.8729C10.1548 12.1415 9.73953 12.198 9.40937 12.0103C7.39981 10.8675 5.73567 9.20341 4.59297 7.19385C4.40523 6.86369 4.46177 6.44839 4.7303 6.17981L5.68281 5.22729C5.76913 5.13875 5.82829 5.02746 5.8542 4.90649C5.88036 4.78382 5.87085 4.65587 5.82673 4.53845V4.53625C5.55152 3.79872 5.36008 3.03255 5.25654 2.2522L5.22908 2.13684C5.19184 2.02484 5.12521 1.92361 5.03462 1.8457C4.91402 1.74208 4.75965 1.68604 4.60066 1.6875H2.34297L2.20784 1.70178Z" fill="var(--fill-0, white)"/>
</svg>
