<svg preserveAspectRatio="none" width="100%" height="100%" overflow="visible" style="display: block;" viewBox="0 0 20.8 20.8" fill="none" xmlns="http://www.w3.org/2000/svg">
<g id="Combined-Shape" filter="url(#filter0_d_1458_34716)">
<path fill-rule="evenodd" clip-rule="evenodd" d="M2 10.3997C2 9.88662 2.41614 9.47048 2.92998 9.46969L9.47016 9.46951L9.47035 2.92933C9.47035 2.4557 9.82501 2.06461 10.2831 2.00724L10.3994 2C10.9134 1.99921 11.3304 2.41629 11.3297 2.92998L11.3289 9.47016L17.8698 9.47035C18.3441 9.46962 18.7354 9.82431 18.7928 10.2835L18.8 10.4003C18.8 10.9134 18.3838 11.3297 17.8707 11.3297L11.3302 11.3296L11.3303 17.8703C11.3296 18.3443 10.9749 18.7354 10.5167 18.7928L10.4001 18.8C9.88649 18.7992 9.47035 18.3831 9.47035 17.87L9.46951 11.3296L2.92998 11.3297C2.45636 11.3297 2.06471 10.9744 2.00725 10.5162L2 10.3997Z" fill="#E6F5FF"/>
</g>
<defs>
<filter id="filter0_d_1458_34716" x="0" y="0" width="20.8" height="20.8" filterUnits="userSpaceOnUse" color-interpolation-filters="sRGB">
<feFlood flood-opacity="0" result="BackgroundImageFix"/>
<feColorMatrix in="SourceAlpha" type="matrix" values="0 0 0 0 0 0 0 0 0 0 0 0 0 0 0 0 0 0 127 0" result="hardAlpha"/>
<feOffset/>
<feGaussianBlur stdDeviation="1"/>
<feComposite in2="hardAlpha" operator="out"/>
<feColorMatrix type="matrix" values="0 0 0 0 0.537255 0 0 0 0 0.819608 0 0 0 0 1 0 0 0 0.3 0"/>
<feBlend mode="normal" in2="BackgroundImageFix" result="effect1_dropShadow_1458_34716"/>
<feBlend mode="normal" in="SourceGraphic" in2="effect1_dropShadow_1458_34716" result="shape"/>
</filter>
</defs>
</svg>
